<svg id="Camada_1" data-name="Camada 1" xmlns="http://www.w3.org/2000/svg" viewBox="0 0 33.75 33.75"><defs><style>.cls-1{fill:#ed3e0c;}.cls-2{fill:#fff;}</style></defs><path class="cls-1" d="M421,280.4h15a1.62,1.62,0,0,1,1.86,1.86q0,15,0,30a1.62,1.62,0,0,1-1.86,1.86H406c-1.3,0-1.88-.58-1.88-1.88q0-15,0-30c0-1.3.58-1.88,1.88-1.88ZM432.34,287l-14.46,16.13-8.38-8-2.15,2.26,10.72,10.2,16.59-18.54Z" transform="translate(-404.12 -280.4)"/><path class="cls-2" d="M432.34,287l2.32,2.08-16.59,18.54-10.72-10.2,2.15-2.26,8.38,8Z" transform="translate(-404.12 -280.4)"/></svg>